# xmcd CD database file
#
# Track frame offsets:
#	150
#	16628
#	31455
#	46570
#	59813
#	73352
#	91085
#	107417
#	120485
#	136853
#	154430
#	168422
#	180860
#	196590
#	208580
#	221845
#	233380
#	250100
#	264533
#	279095
#	292400
#	305370
#	317605
#
# Disc length: 4464 seconds
#
# Revision: 0
# Processed by: cddbd v1.5.2PL0 Copyright (c) Steve Scherf et al.
# Submitted via: CDex 1.70beta2
#
DISCID=3a116e17
DTITLE=ChartBreakers - ChartBreakers CGC-509
DYEAR=0000
DGENRE=Country
TTITLE0=Judds - Change Of Heart
TTITLE1=Kentucky Headhunters - Oh Lonesome Me
TTITLE2=Tracy Lawrence - Somebody Paints The Wall
TTITLE3=Kathy Mattea - Lonesome Standard Time
TTITLE4=Oak Ridge Boys /You're The One
TTITLE5=Wynonna - Is It Over Yet
TTITLE6=Wynonna - Only Love
TTITLE7=George Strait - When Did You Stop Loving Me
TTITLE8=Doug Supernaw - Reno
TTITLE9=Alabama - Pass It On Down
TTITLE10=Garth Brooks - Much Too Young (To Feel This Damn Old)
TTITLE11=Mary-Chapin Carpenter - Right Now
TTITLE12=Joe Diffie - Home
TTITLE13=Vince Gill - Take Your Memory With You
TTITLE14=Alan Jackson - Don't Rock The Jukebox
TTITLE15=Sammy Kershaw - Anywhere But Here
TTITLE16=Tracy Lawrence - Sticks And Stones
TTITLE17=John Michael Montgomery - Life's A Dance
TTITLE18=Mike Reid - Walk On Faith
TTITLE19=Sawyer Brown - Dirt Road
TTITLE20=Pam Tillis - Put Yourself In My Place
TTITLE21=Tanya Tucker - Walking Shoes
TTITLE22=Wynonna - I Saw The Light
EXTD=YEAR: 0000
EXTT0=
EXTT1=
EXTT2=
EXTT3=
EXTT4=
EXTT5=
EXTT6=
EXTT7=
EXTT8=
EXTT9=
EXTT10=
EXTT11=
EXTT12=
EXTT13=
EXTT14=
EXTT15=
EXTT16=
EXTT17=
EXTT18=
EXTT19=
EXTT20=
EXTT21=
EXTT22=
PLAYORDER=
